<svg xmlns="http://www.w3.org/2000/svg" width="256" height="256"><path fill="#212121" fill-opacity=".016" fill-rule="evenodd" d="M0 128.004v128.004l128.25-.254 128.25-.254.254-127.75L257.008 0H0v128.004m.485.496c0 70.4.119 99.053.265 63.672.146-35.38.146-92.98 0-128C.604 29.153.485 58.1.485 128.5"/><path fill="#212121" fill-opacity=".163" fill-rule="evenodd" d="M72.469 51.931c-7.306.46-9.576.999-11.885 2.819-1.622 1.279-4.246 2.25-6.081 2.25-3.079 0-7.557 2.666-13.288 7.909C39.958 66.059 38.532 67 38.046 67 35.362 67 20 83.116 20 85.932c0 .503-1.068 2.187-2.373 3.741-1.305 1.555-2.711 4.832-3.123 7.284-.412 2.451-1.707 5.751-2.877 7.333C9.618 107.008 9.5 108.321 9.5 128c0 19.679.118 20.992 2.127 23.71 1.17 1.582 2.465 4.882 2.877 7.333.412 2.452 1.818 5.729 3.123 7.284 1.305 1.554 2.373 3.238 2.373 3.741C20 172.884 35.362 189 38.046 189c.486 0 1.912.941 3.169 2.091C46.897 196.29 51.43 199 54.443 199c1.809 0 4.622 1.072 6.557 2.5 3.359 2.478 3.572 2.5 24.194 2.5 19.519 0 20.931-.125 22.819-2.013 1.108-1.108 4.264-2.497 7.015-3.086 7.183-1.541 10.001-4.745 6.038-6.865-1.063-.57-2.075-2.273-2.25-3.786-.226-1.969-.955-2.841-2.566-3.07-1.424-.202-2.25-1.011-2.25-2.203 0-1.805.126-1.813 3.003-.18 1.651.936 3.231 2.409 3.51 3.273.607 1.879 6.66 4.93 9.78 4.93 1.224 0 2.788-.9 3.475-2 1.625-2.602 3.232-2.556 3.232.094 0 1.252-.803 2.303-2 2.616-3.288.86-2.448 4.205 1.468 5.841 1.907.797 4.246 1.449 5.196 1.449.951 0 3.389 1.151 5.418 2.557l3.69 2.557 21.012-.307c18.874-.276 21.221-.497 23.077-2.179 1.137-1.03 4.194-2.27 6.794-2.756 2.601-.486 5.683-1.781 6.851-2.878 1.168-1.097 2.556-1.994 3.085-1.994 3.024 0 19.409-15.12 19.409-17.91 0-.607 1.125-2.081 2.5-3.277 1.375-1.195 2.5-2.689 2.5-3.319 0-.63 1.107-2.185 2.459-3.456 1.541-1.447 2.704-3.944 3.115-6.686.361-2.406 1.617-5.597 2.791-7.089 2.03-2.58 2.135-3.775 2.135-24.263 0-20.488-.105-21.683-2.135-24.263-1.174-1.492-2.43-4.683-2.791-7.089-.411-2.742-1.574-5.239-3.115-6.686-1.352-1.271-2.459-2.826-2.459-3.456 0-.63-1.125-2.124-2.5-3.319-1.375-1.196-2.5-2.67-2.5-3.277C231 77.12 214.615 62 211.591 62c-.529 0-1.917-.897-3.085-1.994s-4.25-2.392-6.851-2.878c-2.6-.486-5.634-1.704-6.742-2.707-2.496-2.259-16.964-3.39-33.671-2.633-9.782.443-11.675.818-14.444 2.861-1.753 1.293-4.014 2.351-5.024 2.351-1.011 0-3.399.652-5.306 1.449-3.916 1.636-4.756 4.981-1.468 5.841 1.197.313 2 1.364 2 2.616 0 2.65-1.607 2.696-3.232.094-.687-1.1-2.251-2-3.475-2-3.12 0-9.173 3.051-9.78 4.93-.279.864-1.859 2.337-3.51 3.273-2.877 1.633-3.003 1.625-3.003-.18 0-1.192.826-2.001 2.25-2.203 1.611-.229 2.34-1.101 2.566-3.07.175-1.513 1.187-3.216 2.25-3.786 4.083-2.185 1.072-5.378-6.567-6.964-3.024-.628-5.499-1.571-5.499-2.096 0-.524-1.013-1.327-2.25-1.784-3.155-1.164-23.488-1.87-34.281-1.189M139 71.878c0 .482.635 1.404 1.411 2.048 1.567 1.301 3.17-.177 2.089-1.926-.762-1.232-3.5-1.328-3.5-.122m21.556 1.875c-1.619.848-6.006 1.761-9.75 2.029-3.743.268-6.806.6-6.806.738s.563 1.551 1.25 3.14c1.234 2.852 2.74 4.789 7.868 10.119 1.883 1.956 2.782 4.188 3.2 7.943.349 3.137 1.5 6.465 2.882 8.334 2.209 2.988 2.3 3.86 2.3 21.944s-.091 18.956-2.3 21.944c-1.382 1.869-2.533 5.197-2.882 8.334-.418 3.755-1.317 5.987-3.2 7.943-5.128 5.33-6.634 7.267-7.868 10.119-.687 1.589-1.25 3.002-1.25 3.14 0 .138 3.087.472 6.859.742s8.385 1.265 10.25 2.212c4.23 2.146 12.995 2.199 16.203.097 1.296-.849 5.694-1.963 9.773-2.474 5.734-.72 7.726-1.398 8.787-2.994.755-1.135 1.855-2.063 2.445-2.063.591 0 2.299-1.174 3.798-2.61 1.498-1.435 4.193-2.91 5.99-3.278 2.435-.498 3.45-1.356 3.989-3.371.719-2.687 3.42-6.71 7.58-11.288 1.601-1.761 2.431-4.515 3.148-10.442.535-4.427 1.694-9.149 2.575-10.495 2.049-3.127 2.049-7.905 0-11.032-.881-1.346-2.04-6.068-2.575-10.495-.717-5.927-1.547-8.681-3.148-10.442-4.16-4.578-6.861-8.601-7.58-11.288-.539-2.015-1.554-2.873-3.989-3.371-1.797-.368-4.492-1.843-5.99-3.278-1.499-1.436-3.207-2.61-3.798-2.61-.59 0-1.69-.928-2.445-2.063-1.061-1.596-3.053-2.274-8.787-2.994-4.079-.511-8.45-1.608-9.715-2.436-2.979-1.952-12.893-1.807-16.814.246m-51.889 2.914C107.613 77.72 107.891 83 109 83c.55 0 1-.873 1-1.941s.45-2.219 1-2.559c.55-.34 1-1.041 1-1.559 0-1.078-2.337-1.271-3.333-.274M103 87.5c0 .825.45 1.5 1 1.5s1-.675 1-1.5-.45-1.5-1-1.5-1 .675-1 1.5m-5.344 8.25c-.33 2.063-.3 4.875.066 6.25l.665 2.5.707-2.5c1.028-3.637 1.05-10 .034-10-.48 0-1.142 1.688-1.472 3.75m-5.024 14.34c-.817 4.084-.822 31.709-.007 35.785 1.38 6.898 1.872 2.167 1.806-17.361-.067-20.048-.529-24.775-1.799-18.424m4.964 43.702c-.902 2.729.192 10.208 1.492 10.208 1.056 0 1.049-6.337-.011-10l-.724-2.5-.757 2.292m4.797 14.79c.334.87.607 1.77.607 2 0 .23.45.418 1 .418s1-.9 1-2c0-1.17-.667-2-1.607-2-1.055 0-1.398.544-1 1.582m5.405 7.497c.249 1.694 1.09 3.325 1.87 3.624 2.152.825 2.415-.022 1.095-3.519-1.555-4.122-3.565-4.192-2.965-.105M140.2 182.2c-.66.66-1.2 1.56-1.2 2 0 1.192 2.779.967 3.554-.287 1.03-1.666-.956-3.111-2.354-1.713"/><path fill="#212121" fill-opacity=".6" fill-rule="evenodd" d="M74 54.002c-7.314.984-21.521 5.98-26.5 9.32-2.2 1.475-5.575 3.745-7.5 5.044-10.881 7.344-20.96 21.08-24.542 33.448-.906 3.127-2.167 6.318-2.803 7.09-1.602 1.947-1.602 36.245 0 38.192.636.772 1.897 3.963 2.803 7.09C19.04 166.554 29.119 180.29 40 187.634c1.925 1.299 5.3 3.573 7.5 5.054 5.903 3.973 21.734 8.966 31 9.776 10.353.906 22.14-.736 31.005-4.319 9.357-3.781 9.699-5.777 2.302-13.443-2.919-3.024-6.432-7.138-7.807-9.142a211.073 211.073 0 0 0-5.182-7.153c-1.475-1.931-2.992-4.95-3.37-6.709-.379-1.759-1.323-4.439-2.098-5.955-.775-1.517-2.066-8.375-2.869-15.241-1.259-10.761-1.27-14.12-.081-24.33.759-6.515 2.05-13.157 2.87-14.759.819-1.602 1.799-4.352 2.178-6.111.378-1.759 1.895-4.774 3.37-6.7 1.475-1.925 3.807-5.408 5.182-7.74 1.375-2.331 4.888-6.674 7.807-9.651 7.404-7.552 7.058-9.574-2.283-13.348-10.65-4.304-22.586-5.601-35.524-3.861m85.396-.07c-2.807.448-7.982 1.935-11.5 3.305s-7.195 2.767-8.171 3.105c-4.774 1.652 3.723 12.628 9.775 12.628 1.65 0 4.8-.649 7-1.441 6.218-2.24 18.709-1.893 29.078.809 7.063 1.84 10.244 3.3 14.947 6.861 3.286 2.488 7.438 5.272 9.225 6.188 1.787.915 3.25 2.103 3.25 2.639 0 .536.787 1.784 1.75 2.774 7.757 7.979 13.646 24.035 13.646 37.2 0 13.165-5.889 29.221-13.646 37.2-.963.99-1.75 2.238-1.75 2.774s-1.463 1.724-3.25 2.639c-1.787.916-5.939 3.7-9.225 6.188-4.703 3.561-7.884 5.021-14.947 6.861-10.369 2.702-22.86 3.049-29.078.809-2.2-.792-5.206-1.448-6.681-1.456-4.207-.024-9.613 3.968-10.771 7.955-1.173 4.037-1.003 4.255 4.952 6.339 2.475.867 6.525 2.353 9 3.302 6.372 2.444 29.545 2.425 36-.029 2.475-.942 6.525-2.296 9-3.009 8.487-2.447 21.196-10.804 27.127-17.839 10.357-12.282 15.956-23.02 18.896-36.234 1.16-5.213 1.147-25.867-.019-31-3.002-13.217-8.766-24.242-19.052-36.442-5.9-6.999-18.37-15.156-26.952-17.631-2.475-.713-6.37-1.984-8.655-2.824-4.954-1.821-22.772-2.815-29.949-1.671m-32.509 14.771c-2.923.451-15.662 13.21-20.821 20.854-1.73 2.563-3.796 7.466-4.591 10.895-.795 3.429-2.226 7.992-3.18 10.141-2.499 5.629-2.499 29.185 0 34.814.954 2.149 2.399 6.775 3.212 10.281.813 3.505 2.494 7.822 3.736 9.593 3.341 4.765 12.053 15.098 13.512 16.025.698.444 2.276 1.849 3.507 3.122 1.231 1.274 3.641 2.576 5.356 2.893 2.815.52 3.766-.067 9.75-6.023 3.648-3.629 6.632-6.94 6.632-7.357 0-.417 2.027-3.246 4.505-6.288 3.287-4.035 4.928-7.236 6.069-11.842.861-3.471 2.321-8.336 3.245-10.811 1.245-3.332 1.681-7.743 1.681-17s-.436-13.668-1.681-17c-.924-2.475-2.384-7.34-3.245-10.811-1.141-4.606-2.782-7.807-6.069-11.842-2.478-3.042-4.505-5.903-4.505-6.358 0-1.008-13.126-14.05-13.929-13.839-.314.082-1.747.331-3.184.553"/><path fill="#212121" fill-opacity=".976" fill-rule="evenodd" d="M76.5 56.099c-1.65.511-7.01 1.818-11.911 2.905-4.901 1.088-9.626 2.583-10.5 3.322-.874.74-3.019 1.91-4.767 2.601-1.747.691-3.955 2.115-4.905 3.164-.95 1.05-2.215 1.909-2.811 1.909-.597 0-2.214 1.102-3.595 2.449a1056.144 1056.144 0 0 1-6.761 6.5c-2.337 2.228-4.25 4.71-4.25 5.516 0 .805-.9 1.946-2 2.535-1.1.589-2.005 1.842-2.012 2.785-.007.943-1.157 3.718-2.556 6.166-1.399 2.447-3.166 7.408-3.927 11.023-.76 3.615-1.926 7.912-2.591 9.549-1.563 3.849-1.563 19.105 0 22.954.665 1.637 1.831 5.934 2.591 9.549.761 3.615 2.528 8.576 3.927 11.023 1.399 2.448 2.549 5.223 2.556 6.166.007.943.912 2.196 2.012 2.785s2 1.73 2 2.535c0 .806 1.912 3.288 4.25 5.516 2.337 2.228 5.38 5.153 6.761 6.5 1.381 1.347 2.998 2.449 3.595 2.449.596 0 1.861.859 2.811 1.909.95 1.049 3.158 2.473 4.905 3.164 1.748.691 3.892 1.861 4.766 2.6.873.739 5.373 2.216 10 3.283 4.626 1.066 10.212 2.402 12.412 2.968 5.64 1.45 12.702 1.316 17.715-.336 2.357-.777 6.985-1.976 10.285-2.666 10.479-2.188 10.958-4.286 3.026-13.242-8.612-9.722-10.398-12.479-15.665-24.184-.991-2.202-2.108-7.377-2.482-11.5-.374-4.123-1.287-9.24-2.03-11.372-1.727-4.96-1.724-12.302.007-17.248.746-2.132 1.683-7.251 2.082-11.376.399-4.125 1.527-9.075 2.507-11 .98-1.925 2.529-5.075 3.441-7 .913-1.925 2.781-5.075 4.152-7 1.371-1.925 3.048-4.376 3.727-5.446.679-1.071 3.147-4.042 5.485-6.604 4.302-4.714 5.277-7.872 3-9.719-.687-.558-3.95-1.551-7.25-2.208-3.3-.656-7.928-1.83-10.285-2.608-4.781-1.579-13.147-1.728-17.715-.316M158 57.12c-3.575 1.037-8.31 2.324-10.522 2.86-3.089.748-4.276 1.648-5.117 3.875-1.023 2.709-.887 3.001 2.048 4.4 2.192 1.045 4.647 1.309 8.117.872 2.736-.345 11.499-.587 19.474-.537 13.422.082 14.922.283 20.184 2.706 5.218 2.402 12.819 7.564 16.377 11.122.798.798 2.348 1.736 3.445 2.084 1.097.348 1.994 1.045 1.994 1.548 0 .504 1.106 2.161 2.459 3.683 5.523 6.215 7.519 9.16 9.975 14.713 5.392 12.194 5.392 34.914 0 47.108-2.456 5.553-4.452 8.498-9.975 14.713-1.353 1.522-2.459 3.179-2.459 3.683 0 .503-.897 1.2-1.994 1.548-1.097.348-2.647 1.286-3.445 2.084-3.544 3.544-11.412 8.918-16.397 11.201-4.946 2.264-6.736 2.496-20.048 2.599-8.039.063-16.866-.105-19.616-.371-2.967-.288-6.275.048-8.135.826-2.954 1.235-3.071 1.481-2.022 4.26.861 2.281 2.023 3.167 5.135 3.916 2.212.532 7.275 1.872 11.251 2.977 7.954 2.212 14.649 2.511 20.771.929 2.2-.569 7.498-1.862 11.773-2.873 4.275-1.012 8.325-2.296 9-2.854.675-.557 3.252-1.802 5.727-2.766 2.475-.964 5.305-2.579 6.289-3.589.984-1.011 2.167-1.837 2.629-1.837.761 0 6.395-5.392 10.971-10.5.985-1.1 3.101-4.156 4.701-6.79a504.603 504.603 0 0 1 5.071-8.164c1.189-1.855 2.68-5.999 3.315-9.209.634-3.211 1.89-8.087 2.791-10.837.926-2.829 1.637-8.256 1.637-12.5s-.711-9.671-1.637-12.5c-.901-2.75-2.157-7.626-2.791-10.837-.635-3.21-2.126-7.354-3.315-9.209a504.603 504.603 0 0 1-5.071-8.164c-1.6-2.634-3.716-5.69-4.701-6.79-5.28-5.894-10.261-10.483-11.965-11.024-1.058-.336-1.924-1.042-1.924-1.568 0-.527-1.238-1.414-2.75-1.973-1.512-.559-5-2.082-7.75-3.386-6.678-3.166-25.767-7.608-32-7.445-2.75.072-7.925.979-11.5 2.016m-34.654 16.148c-1.185 1.228-3.962 3.807-6.172 5.732-2.209 1.925-4.286 4.513-4.615 5.75-.328 1.237-1.032 2.25-1.564 2.25-1.774 0-7.976 14.124-8.991 20.474-.55 3.446-1.676 8.181-2.502 10.521-1.923 5.449-1.923 14.561 0 20.01.826 2.34 1.952 7.075 2.502 10.521 1.001 6.262 7.208 20.474 8.942 20.474.506 0 1.234.993 1.619 2.206s2.553 3.888 4.818 5.944c2.264 2.057 5.064 4.664 6.222 5.795 3.525 3.441 6.409 2.604 13.191-3.83 3.412-3.236 6.204-6.596 6.204-7.465 0-.869 1.289-3.059 2.865-4.865 4.298-4.927 6.942-10.82 8.096-18.042.57-3.565 1.711-8.398 2.537-10.738 1.923-5.449 1.923-14.561 0-20.01-.826-2.34-1.967-7.173-2.537-10.738-1.154-7.222-3.798-13.115-8.096-18.042-1.576-1.806-2.865-3.996-2.865-4.865 0-.869-2.792-4.229-6.204-7.465-6.879-6.526-9.867-7.329-13.45-3.617"/></svg>