<?xml version="1.0" standalone="no"?>
<!DOCTYPE svg PUBLIC "-//W3C//DTD SVG 20010904//EN"
 "http://www.w3.org/TR/2001/REC-SVG-20010904/DTD/svg10.dtd">
<svg version="1.0" xmlns="http://www.w3.org/2000/svg"
 width="2000.000000pt" height="1500.000000pt" viewBox="0 0 2000.000000 1500.000000"
 preserveAspectRatio="xMidYMid meet">

<g transform="translate(0.000000,1500.000000) scale(0.100000,-0.100000)"
fill="#000000" stroke="none">
<path d="M3848 8946 c-88 -31 -212 -138 -285 -246 -51 -76 -594 -1055 -678
-1222 -88 -178 -89 -167 4 -221 100 -60 247 -107 338 -107 l41 0 71 116 c82
132 573 1007 637 1134 23 47 52 117 64 155 26 83 37 224 22 280 l-11 40 19
-25 c34 -44 45 -91 44 -190 -2 -149 -47 -262 -210 -527 -84 -136 -102 -172
-120 -243 -26 -103 1 -103 69 -2 24 37 101 169 170 293 153 274 189 369 191
504 1 79 -2 97 -26 146 -32 64 -82 99 -144 99 -22 1 -50 7 -64 15 -31 18 -84
18 -132 1z"/>
<path d="M5491 8944 c-13 -9 -32 -35 -42 -58 -18 -39 -19 -93 -19 -1381 0
-1288 1 -1342 19 -1381 10 -23 29 -49 42 -58 35 -24 110 -21 144 6 58 45 55
-29 55 1433 0 1462 3 1388 -55 1433 -34 27 -109 30 -144 6z"/>
<path d="M10465 8953 c-261 -36 -499 -217 -615 -465 -63 -135 -62 -125 -72
-823 -11 -733 -7 -898 21 -1002 40 -152 118 -281 239 -395 285 -269 698 -290
1010 -51 136 104 247 273 293 448 22 79 22 92 20 830 -3 875 -3 872 -98 1045
-160 292 -479 457 -798 413z m205 -495 c34 -9 60 -27 106 -72 104 -104 99 -53
99 -886 l0 -715 -30 -58 c-38 -76 -118 -150 -186 -172 -71 -24 -163 -16 -222
19 -63 36 -132 117 -154 179 -17 48 -18 101 -18 757 0 801 -3 765 82 860 88
98 182 124 323 88z"/>
<path d="M12298 8950 c-180 -33 -315 -107 -444 -243 -112 -117 -180 -248 -210
-405 -20 -105 -20 -1480 0 -1592 44 -244 210 -466 431 -575 105 -52 179 -73
291 -81 365 -29 692 201 815 571 23 68 23 81 27 503 l3 432 -393 -2 -393 -3
-3 -242 -2 -242 152 -3 153 -3 -1 -142 c-1 -138 -1 -143 -33 -207 -61 -124
-164 -184 -297 -173 -100 8 -189 72 -246 179 l-23 43 0 740 0 740 23 48 c94
190 313 244 460 112 88 -79 122 -182 122 -367 l0 -88 241 0 241 0 -4 188 c-4
158 -8 198 -27 257 -48 149 -137 282 -254 382 -72 62 -214 135 -307 158 -75
19 -254 28 -322 15z"/>
<path d="M6386 7509 c-4 -834 -3 -1406 2 -1411 6 -6 192 -8 443 -5 490 4 497
5 656 82 284 138 461 404 480 720 12 219 -53 418 -193 591 l-45 54 60 69 c76
89 133 186 167 286 25 72 28 94 28 215 1 160 -13 222 -78 355 -99 200 -266
345 -481 416 -69 23 -79 24 -551 27 l-481 3 -7 -1402z m843 920 c77 -12 109
-28 168 -82 65 -60 95 -125 101 -218 4 -63 1 -84 -17 -125 -50 -114 -115 -173
-219 -199 -44 -12 -102 -15 -223 -13 l-164 3 -3 310 c-1 170 0 315 3 322 6 16
259 18 354 2z m26 -1149 c72 -28 159 -110 196 -185 21 -43 24 -64 24 -150 0
-95 -2 -103 -34 -163 -36 -66 -101 -131 -161 -162 -57 -29 -133 -40 -275 -40
l-135 0 0 358 c0 197 3 362 8 366 4 5 77 6 162 3 130 -4 165 -8 215 -27z"/>
<path d="M8270 7500 l0 -1410 670 0 670 0 -2 248 -3 247 -425 3 -425 2 3 1160
4 1160 -246 0 -246 0 0 -1410z"/>
<path d="M13510 7500 l0 -1410 243 2 242 3 0 990 c0 545 -1 1178 -3 1408 l-2
417 -240 0 -240 0 0 -1410z"/>
<path d="M14366 8138 c-4 -425 -6 -1059 -4 -1408 l3 -635 240 0 240 0 3 603 2
602 425 0 425 0 0 245 0 245 -425 0 -425 0 0 320 0 320 425 0 425 0 0 240 0
240 -664 0 -664 0 -6 -772z"/>
<path d="M15925 8808 c19 -57 143 -431 276 -833 l242 -730 -4 -575 -4 -575
245 0 245 0 -4 585 -3 585 276 819 c152 450 276 820 276 822 0 3 -109 3 -241
2 l-242 -3 -150 -542 c-83 -299 -154 -543 -157 -543 -3 0 -73 245 -155 545
l-150 545 -242 0 -242 0 34 -102z"/>
<path d="M2754 7201 c-160 -349 -253 -688 -215 -783 49 -126 296 96 607 548
46 67 84 125 84 128 0 3 -23 6 -51 6 -112 0 -263 59 -343 134 l-48 44 -34 -77z"/>
<path d="M3475 6446 c-49 -13 -146 -40 -215 -60 -250 -74 -370 -81 -398 -23
-17 34 -55 34 -60 0 -9 -61 51 -98 158 -96 93 2 177 19 395 84 124 37 194 52
257 56 103 7 112 -1 83 -76 -10 -25 -20 -59 -23 -75 l-5 -29 69 5 c38 3 139
26 224 51 176 52 250 67 342 69 114 4 139 -20 168 -157 29 -134 92 -172 209
-127 51 20 72 45 53 64 -9 9 -23 8 -65 -5 -102 -32 -113 -23 -146 113 -35 140
-71 170 -207 170 -103 0 -164 -11 -354 -65 -221 -62 -214 -61 -205 -33 4 13
10 41 12 64 4 36 1 44 -27 67 -28 24 -40 27 -103 26 -40 0 -112 -11 -162 -23z"/>
</g>
</svg>
